<?xml version="1.0" encoding="UTF-8"?>
<svg version="1.1" xmlns="http://www.w3.org/2000/svg" width="1536" height="1024">
<path d="M0 0 C506.88 0 1013.76 0 1536 0 C1536 337.92 1536 675.84 1536 1024 C1029.12 1024 522.24 1024 0 1024 C0 686.08 0 348.16 0 0 Z " fill="#F6F7F9" transform="translate(0,0)"/>
<path d="M0 0 C3.9290625 -0.0309375 3.9290625 -0.0309375 7.9375 -0.0625 C8.7637085 -0.071604 9.58991699 -0.08070801 10.44116211 -0.09008789 C12.29433759 -0.09723945 14.14749308 -0.0502852 16 0 C17.81115624 1.81115624 17.11995376 4.29877501 17.12442017 6.70901489 C17.11902725 7.93791946 17.11902725 7.93791946 17.11352539 9.19165039 C17.11367142 10.05011063 17.11381744 10.90857086 17.1139679 11.79304504 C17.11326847 14.64460738 17.1054747 17.49610525 17.09765625 20.34765625 C17.09579218 22.31920842 17.09436822 24.29076105 17.09336853 26.26231384 C17.08954251 31.46226267 17.07971152 36.66218375 17.06866455 41.86212158 C17.05845222 47.16393661 17.05387129 52.4657561 17.04882812 57.76757812 C17.03808933 68.17839763 17.02101191 78.58919651 17 89 C11.72 89 6.44 89 1 89 C0.505 85.535 0.505 85.535 0 82 C-0.81404297 82.63228516 -0.81404297 82.63228516 -1.64453125 83.27734375 C-2.35996094 83.82519531 -3.07539062 84.37304688 -3.8125 84.9375 C-4.52019531 85.48277344 -5.22789062 86.02804687 -5.95703125 86.58984375 C-11.77561764 90.60611466 -20.22422542 89.480173 -27 89 C-34.75447841 86.90172937 -39.8550112 81.0149497 -43.86328125 74.30078125 C-48.98357815 63.9370188 -49.02370447 53.88192994 -46.0390625 42.93359375 C-43.01378903 34.39231413 -37.78566111 28.83277179 -29.7421875 24.89453125 C-23.01692637 22.70067826 -13.68718947 22.68381015 -7.25 25.8125 C-4 28 -4 28 -1 31 C-0.67 20.77 -0.34 10.54 0 0 Z " fill="#58C784" transform="translate(926,436)"/>
<path d="M0 0 C1.94326172 -0.05607422 1.94326172 -0.05607422 3.92578125 -0.11328125 C10.97014295 0.68405564 15.02004385 5.42278403 19.6875 10.3125 C20.44933594 9.48105469 20.44933594 9.48105469 21.2265625 8.6328125 C21.91492188 7.90835937 22.60328125 7.18390625 23.3125 6.4375 C23.98539063 5.71820313 24.65828125 4.99890625 25.3515625 4.2578125 C31.65482525 -0.99139293 39.92413629 -0.38922281 47.6875 0.3125 C53.75595191 1.91097235 58.5047972 5.93028603 61.6875 11.3125 C63.83940604 17.29242972 63.95002341 22.74243995 63.8828125 29.05859375 C63.8799826 30.06970718 63.87715271 31.08082062 63.87423706 32.12257385 C63.86309889 35.33183952 63.83800597 38.54081958 63.8125 41.75 C63.80246198 43.93424074 63.79333757 46.11848589 63.78515625 48.30273438 C63.76318038 53.63943189 63.72869445 58.97591763 63.6875 64.3125 C58.4075 64.3125 53.1275 64.3125 47.6875 64.3125 C47.67291748 63.16773193 47.65833496 62.02296387 47.64331055 60.84350586 C47.58509239 56.57350303 47.50786172 52.30401462 47.42504883 48.03442383 C47.39190974 46.19075912 47.36384387 44.34699564 47.34106445 42.50317383 C47.30731488 39.84413792 47.25499034 37.18599813 47.19921875 34.52734375 C47.19282883 33.71039536 47.1864389 32.89344696 47.17985535 32.05174255 C47.04574523 26.76515643 46.15529422 23.01286328 43.6875 18.3125 C41.32613092 16.09003498 39.77280535 15.37564504 36.5390625 15.1875 C32.37121334 15.4090468 30.1504922 15.96771857 26.75 18.5 C22.7094268 24.00987254 22.37120997 29.40392549 22.2734375 35.9921875 C22.25407135 36.80495148 22.2347052 37.61771545 22.2147522 38.45510864 C22.15532117 41.03246812 22.10871819 43.60987315 22.0625 46.1875 C22.02428657 47.94272702 21.98523291 49.69793597 21.9453125 51.453125 C21.84807937 55.73948536 21.76822326 60.02567019 21.6875 64.3125 C16.4075 64.3125 11.1275 64.3125 5.6875 64.3125 C5.657771 62.43546387 5.657771 62.43546387 5.62744141 60.52050781 C5.55134707 55.876098 5.46263537 51.23199992 5.37011719 46.58789062 C5.33184331 44.57818762 5.29698764 42.56841649 5.265625 40.55859375 C5.21994009 37.6690232 5.16195113 34.77992104 5.1015625 31.890625 C5.09001129 30.99257141 5.07846008 30.09451782 5.06655884 29.16925049 C5.04668915 28.32868103 5.02681946 27.48811157 5.00634766 26.62207031 C4.99302399 25.88482727 4.97970032 25.14758423 4.9659729 24.38800049 C4.64190976 21.97270906 3.96690491 20.38150418 2.6875 18.3125 C-1.6466273 15.24689776 -5.09991642 14.89132374 -10.19140625 15.6640625 C-13.53827665 16.68723098 -15.23132466 18.58095737 -17.3125 21.3125 C-18.19815586 23.96946758 -18.4575262 25.59440083 -18.51782227 28.32495117 C-18.53776749 29.12555466 -18.55771271 29.92615814 -18.57826233 30.75102234 C-18.60333107 32.04022331 -18.60333107 32.04022331 -18.62890625 33.35546875 C-18.64968735 34.2390657 -18.67046844 35.12266266 -18.69187927 36.03303528 C-18.75725754 38.85527785 -18.81620528 41.67761335 -18.875 44.5 C-18.91819637 46.41342106 -18.96181102 48.32683273 -19.00585938 50.24023438 C-19.11292695 54.93089437 -19.21422752 59.62164783 -19.3125 64.3125 C-24.5925 64.3125 -29.8725 64.3125 -35.3125 64.3125 C-35.3125 43.5225 -35.3125 22.7325 -35.3125 1.3125 C-30.3625 1.3125 -25.4125 1.3125 -20.3125 1.3125 C-20.3125 3.9525 -20.3125 6.5925 -20.3125 9.3125 C-19.6525 9.3125 -18.9925 9.3125 -18.3125 9.3125 C-18.10625 8.735 -17.9 8.1575 -17.6875 7.5625 C-13.68755733 1.01713926 -7.03664733 0.13224164 0 0 Z " fill="#131F39" transform="translate(994.3125,459.6875)"/>
<path d="M0 0 C0.64324219 0.350625 1.28648437 0.70125 1.94921875 1.0625 C9.28274966 5.64396833 13.42533116 13.26108585 15.5234375 21.4765625 C17.43734212 31.61084433 15.03847251 40.40538448 9.6484375 49.20703125 C6.00875009 53.87355785 1.30890165 56.53482306 -4 59 C-4.73734375 59.36738281 -5.4746875 59.73476563 -6.234375 60.11328125 C-14.80512108 62.86124645 -26.85114771 62.27970612 -34.89453125 58.3203125 C-43.31232978 53.0416188 -47.79719762 46.76924434 -51.3125 37.5625 C-53.12791458 28.15535171 -52.4963039 18.65686456 -47.4375 10.375 C-42.77376454 3.90010514 -36.48912717 -1.37914851 -28.7109375 -3.5625 C-18.76349336 -5.16785122 -8.94027826 -5.04238329 0 0 Z " fill="#15213B" transform="translate(637,464)"/>
<path d="M0 0 C7.48845664 -0.27347747 13.16390593 0.27448905 19.57421875 4.2421875 C20.27160156 4.6546875 20.96898437 5.0671875 21.6875 5.4921875 C28.4479806 9.97371136 32.74275527 16.58327468 34.94921875 24.3671875 C36.71628576 35.32300297 34.52878986 44.82859497 28.57421875 54.2421875 C23.54452813 60.11225037 16.7589163 62.84728832 9.57421875 65.2421875 C-2.51449314 65.90042103 -11.15254045 66.08211854 -20.67578125 57.9921875 C-28.2851236 50.7563098 -31.38356301 43.22551677 -31.67578125 32.7421875 C-31.35809753 22.57630861 -28.40342081 15.23699133 -21.16015625 7.96875 C-14.27396114 1.97039766 -8.89115925 0.62856542 0 0 Z " fill="#15213A" transform="translate(1099.42578125,459.7578125)"/>
<path d="M0 0 C5.93799033 4.92608561 7.80789781 9.54067019 9 17 C9.24291859 20.50613781 9.23490313 23.99074981 9.1953125 27.50390625 C9.1924826 28.4677977 9.18965271 29.43168915 9.18673706 30.42478943 C9.17563848 33.47082506 9.15055364 36.51655486 9.125 39.5625 C9.11495684 41.64127176 9.10583334 43.72004818 9.09765625 45.79882812 C9.07573305 50.86600131 9.04127556 55.932949 9 61 C3.72 61 -1.56 61 -7 61 C-7.495 59.02 -7.495 59.02 -8 57 C-8.53625 57.28875 -9.0725 57.5775 -9.625 57.875 C-17.48295733 61.59719032 -27.44272489 62.9793825 -35.92895508 60.41772461 C-42.10258175 57.95787573 -45.50617793 54.05554514 -48.375 48.1875 C-49.53584049 42.2672135 -50.06029888 37.12059777 -47.3125 31.625 C-41.97384709 25.56490751 -36.94168375 23.01346019 -29 22 C-25.20730572 21.88187584 -21.41904724 21.90567896 -17.625 21.9375 C-16.09166016 21.94426758 -16.09166016 21.94426758 -14.52734375 21.95117188 C-12.01816806 21.962897 -9.5091151 21.97930824 -7 22 C-7.44790487 16.93466623 -7.44790487 16.93466623 -9.875 12.625 C-15.03164119 8.68168615 -21.82467507 9.45326295 -28 10 C-30.80912923 10.87854502 -33.34013541 11.92196049 -35.9765625 13.22265625 C-38 14 -38 14 -41 13 C-42.203125 11.51171875 -42.203125 11.51171875 -43.25 9.6875 C-43.78367187 8.79611328 -43.78367187 8.79611328 -44.328125 7.88671875 C-45.19055263 5.46490164 -45.02171889 4.34706179 -44 2 C-33.34156405 -6.32010562 -11.17231991 -7.42729132 0 0 Z " fill="#59C784" transform="translate(785,464)"/>
<path d="M0 0 C0.92296875 0.00064453 1.8459375 0.00128906 2.796875 0.00195312 C9.60953692 0.04703692 9.60953692 0.04703692 10.75 1.1875 C10.15 7.7875 10.15 7.7875 7.75 10.1875 C5.2172981 10.53069631 2.7126016 10.6295609 0.16015625 10.74609375 C-2.7255074 11.27458645 -3.46295225 11.90433157 -5.25 14.1875 C-5.69323935 16.3102691 -5.69323935 16.3102691 -5.61889648 18.68383789 C-5.62577988 19.59230972 -5.63266327 20.50078156 -5.63975525 21.43678284 C-5.63359695 22.41799606 -5.62743866 23.39920929 -5.62109375 24.41015625 C-5.63849037 26.49674631 -5.65607458 28.58333482 -5.67382812 30.66992188 C-5.68386037 33.95242368 -5.68750794 37.23481756 -5.68579102 40.51733398 C-5.68938763 43.69026435 -5.71684424 46.86237347 -5.74609375 50.03515625 C-5.73791122 51.00219986 -5.7297287 51.96924347 -5.72129822 52.96559143 C-5.80847185 61.04868247 -7.57607324 67.91193972 -12.75 74.25 C-15.05439393 76.0359053 -16.38741612 76.86943512 -19.25 77.1875 C-19.25 77.8475 -19.25 78.5075 -19.25 79.1875 C-18.54875 79.208125 -17.8475 79.22875 -17.125 79.25 C-12.89456979 80.62948811 -10.54501633 83.43201873 -8.25 87.1875 C-6.15753513 93.04994736 -5.96996789 98.38550927 -5.9765625 104.57421875 C-5.95629006 106.58399011 -5.93543962 108.59375571 -5.9140625 110.60351562 C-5.89139605 113.75045686 -5.87495901 116.89717008 -5.86914062 120.04418945 C-5.8596407 123.09627677 -5.82591667 126.14735654 -5.7890625 129.19921875 C-5.79410797 130.1409343 -5.79915344 131.08264984 -5.80435181 132.05290222 C-5.77582275 137.27694744 -5.77582275 137.27694744 -3.35717773 141.78027344 C-0.95058962 143.38745382 0.44229798 143.67715223 3.3125 143.75 C7.3357929 143.86533892 7.3357929 143.86533892 9.5078125 145.5546875 C11.25108762 147.84616234 11.10963568 149.38234173 10.75 152.1875 C8.10030963 154.83719037 6.12449836 154.44892444 2.51757812 154.4609375 C1.70740234 154.45320312 0.89722656 154.44546875 0.0625 154.4375 C-0.72833984 154.44523438 -1.51917969 154.45296875 -2.33398438 154.4609375 C-7.80653219 154.44286137 -13.47027559 154.31280499 -17.9921875 150.85546875 C-22.78750468 144.58848527 -22.41160288 138.68226391 -22.49609375 131.1015625 C-22.52902969 129.09895392 -22.56224138 127.09634986 -22.59570312 125.09375 C-22.64308193 121.9515286 -22.68753966 118.80932584 -22.72680664 115.66699219 C-22.76666803 112.62416005 -22.81817178 109.58169168 -22.87109375 106.5390625 C-22.8795079 105.6065567 -22.88792206 104.6740509 -22.89659119 103.71328735 C-22.99686524 94.53031449 -22.99686524 94.53031449 -27.5 86.875 C-30.36089198 85.11945265 -33.04096633 84.13562358 -36.25 83.1875 C-37.25 82.1875 -37.25 82.1875 -37.34765625 80.12109375 C-37.33605469 79.29738281 -37.32445312 78.47367187 -37.3125 77.625 C-37.30347656 76.79871094 -37.29445313 75.97242188 -37.28515625 75.12109375 C-37.27355469 74.48300781 -37.26195312 73.84492188 -37.25 73.1875 C-36.56292969 72.87296875 -35.87585938 72.5584375 -35.16796875 72.234375 C-34.26691406 71.80640625 -33.36585938 71.3784375 -32.4375 70.9375 C-31.54417969 70.51984375 -30.65085937 70.1021875 -29.73046875 69.671875 C-26.46326269 67.71669657 -24.72584692 65.88376405 -23.68798828 62.18408203 C-23.05108386 57.82657653 -23.05293148 53.50021127 -23.00390625 49.1015625 C-22.97097031 47.09895392 -22.93775862 45.09634986 -22.90429688 43.09375 C-22.85691807 39.9515286 -22.81246034 36.80932584 -22.77319336 33.66699219 C-22.73333197 30.62416005 -22.68182822 27.58169168 -22.62890625 24.5390625 C-22.6204921 23.6065567 -22.61207794 22.6740509 -22.60340881 21.71328735 C-22.4804659 15.18075918 -22.2347852 9.60142794 -17.9375 4.375 C-12.24085085 -0.26180744 -7.06223407 -0.09530003 0 0 Z " fill="#14213B" transform="translate(311.25,402.8125)"/>
<path d="M0 0 C7.77161362 4.50268523 11.98636847 9.8099055 14.375 18.4375 C15.80331383 24.28060203 15.375 29.10050746 15.375 35.4375 C0.525 35.4375 -14.325 35.4375 -29.625 35.4375 C-26.45420397 43.33062037 -26.45420397 43.33062037 -19.9375 47.6875 C-11.91158198 49.50468899 -6.96178937 48.64250223 0.11328125 44.3359375 C2.375 43.4375 2.375 43.4375 4.46484375 44.0625 C6.53485198 45.55256727 8.01527402 47.08692721 9.625 49.0625 C10.14578125 49.69414063 10.6665625 50.32578125 11.203125 50.9765625 C11.78320312 51.69972656 11.78320312 51.69972656 12.375 52.4375 C2.07499278 61.85377879 -7.1319003 63.05796564 -20.70214844 62.55615234 C-29.28987344 62.02623432 -34.97754422 56.57560354 -40.625 50.4375 C-42.44233887 47.87270723 -43.62438649 45.41042106 -44.625 42.4375 C-44.85832031 41.77492188 -45.09164063 41.11234375 -45.33203125 40.4296875 C-47.77711465 31.87978295 -47.22820109 22.07161688 -43.5 14 C-34.70741351 -1.34293747 -16.22486735 -7.65439162 0 0 Z " fill="#15213B" transform="translate(1232.625,462.5625)"/>
<path d="M0 0 C5.11801733 3.97549865 8.05968166 8.04137867 9.71484375 14.33203125 C9.98283363 17.9565462 9.94776397 21.56653341 9.91015625 25.19921875 C9.90732635 26.23394318 9.90449646 27.2686676 9.90158081 28.33474731 C9.89042423 31.62562839 9.86532772 34.91623303 9.83984375 38.20703125 C9.82980812 40.44400647 9.82068328 42.68098598 9.8125 44.91796875 C9.79049965 50.38942873 9.75600075 55.86068319 9.71484375 61.33203125 C4.43484375 61.33203125 -0.84515625 61.33203125 -6.28515625 61.33203125 C-6.29973877 60.1517334 -6.31432129 58.97143555 -6.3293457 57.75537109 C-6.38748322 53.3605375 -6.46471506 48.96620799 -6.54760742 44.57177734 C-6.58078418 42.67277226 -6.60883856 40.77367029 -6.6315918 38.87451172 C-6.66527143 36.1385789 -6.71759345 33.40352814 -6.7734375 30.66796875 C-6.77982742 29.82398529 -6.78621735 28.98000183 -6.7928009 28.11044312 C-6.91557045 23.14625588 -7.49802795 19.61075203 -10.28515625 15.33203125 C-14.95776054 12.21696172 -19.81516609 12.74068096 -25.28515625 13.33203125 C-28.79005301 15.15457757 -29.85358718 16.31229242 -31.37646484 19.91064453 C-32.50299884 24.1522478 -32.63782177 28.0795413 -32.69921875 32.44921875 C-32.7185849 33.30637482 -32.73795105 34.16353088 -32.75790405 35.04666138 C-32.81736881 37.76668553 -32.86395194 40.48675277 -32.91015625 43.20703125 C-32.94836655 45.05861153 -32.98742003 46.91017462 -33.02734375 48.76171875 C-33.12461998 53.28506342 -33.20445011 57.80823955 -33.28515625 62.33203125 C-38.89515625 62.33203125 -44.50515625 62.33203125 -50.28515625 62.33203125 C-50.28515625 41.21203125 -50.28515625 20.09203125 -50.28515625 -1.66796875 C-45.00515625 -1.66796875 -39.72515625 -1.66796875 -34.28515625 -1.66796875 C-34.28515625 0.97203125 -34.28515625 3.61203125 -34.28515625 6.33203125 C-33.62515625 6.33203125 -32.96515625 6.33203125 -32.28515625 6.33203125 C-32.07890625 5.75453125 -31.87265625 5.17703125 -31.66015625 4.58203125 C-29.42099388 0.91794737 -26.12665661 -1.19354832 -21.98046875 -2.26171875 C-14.54137006 -3.3829742 -6.64981116 -3.97863966 0 0 Z " fill="#59C985" transform="translate(858.28515625,462.66796875)"/>
<path d="M0 0 C1.75390625 0.96875 1.75390625 0.96875 4.56640625 3.28125 C5.45328125 4.003125 6.34015625 4.725 7.25390625 5.46875 C13.02697247 12.49004675 14.14821054 19.33519719 13.95703125 28.22265625 C13.95137146 29.23093979 13.94571167 30.23922333 13.93988037 31.27806091 C13.91766715 34.46712736 13.86749905 37.65502886 13.81640625 40.84375 C13.7963218 43.01886387 13.77807445 45.19399552 13.76171875 47.36914062 C13.71785172 52.67361915 13.64892933 57.97723775 13.56640625 63.28125 C7.95640625 63.28125 2.34640625 63.28125 -3.43359375 63.28125 C-3.47097656 60.54714844 -3.50835938 57.81304688 -3.546875 54.99609375 C-3.59316043 52.33170833 -3.64436849 49.6674595 -3.69604492 47.00317383 C-3.72918401 45.15950912 -3.75724988 43.31574564 -3.7800293 41.47192383 C-3.81377887 38.81288792 -3.86610341 36.15474813 -3.921875 33.49609375 C-3.92826492 32.67914536 -3.93465485 31.86219696 -3.9412384 31.02049255 C-4.07513787 25.74221048 -4.90008983 21.94736568 -7.43359375 17.28125 C-11.90151913 14.30263308 -16.19719931 14.54815478 -21.43359375 15.28125 C-24.78164717 16.87618884 -26.81069373 19.10578609 -28.56005859 22.40698242 C-29.74985584 26.32187427 -29.78925821 30.01028248 -29.84765625 34.08203125 C-29.8670224 34.91840622 -29.88638855 35.75478119 -29.90634155 36.61650085 C-29.96589567 39.2754817 -30.01242549 41.9345064 -30.05859375 44.59375 C-30.09679581 46.40171109 -30.13584884 48.20965442 -30.17578125 50.01757812 C-30.2715772 54.43865698 -30.35569706 58.85982101 -30.43359375 63.28125 C-35.71359375 63.28125 -40.99359375 63.28125 -46.43359375 63.28125 C-46.43359375 42.49125 -46.43359375 21.70125 -46.43359375 0.28125 C-41.48359375 0.28125 -36.53359375 0.28125 -31.43359375 0.28125 C-31.43359375 3.25125 -31.43359375 6.22125 -31.43359375 9.28125 C-30.77359375 9.28125 -30.11359375 9.28125 -29.43359375 9.28125 C-29.12421875 8.4459375 -29.12421875 8.4459375 -28.80859375 7.59375 C-23.10003316 -2.007011 -9.95456718 -2.94003268 0 0 Z " fill="#14203A" transform="translate(711.43359375,460.71875)"/>
<path d="M0 0 C2.328125 2.140625 2.328125 2.140625 4 4 C3.24088921 5.48521677 2.46728766 6.96303425 1.6875 8.4375 C1.25824219 9.26121094 0.82898438 10.08492188 0.38671875 10.93359375 C-1 13 -1 13 -4 14 C-6.12890625 13.2578125 -6.12890625 13.2578125 -8.5625 12.125 C-13.59695324 10.0021266 -18.49851316 8.71044806 -24 9 C-26.23444225 9.9127675 -26.23444225 9.9127675 -28 11 C-28.33425735 13.37374861 -28.33425735 13.37374861 -28 16 C-24.85096713 19.05664071 -21.50079925 19.83368467 -17.3125 20.875 C-9.09813 23.11450566 -0.44128181 26.08997254 4.078125 33.8515625 C6.16068949 38.70499669 5.36191101 43.7439559 3.9375 48.6875 C0.26856681 54.96019223 -5.01163074 58.88639388 -12 61 C-14.95115531 61.40277511 -17.83764198 61.42952961 -20.8125 61.375 C-21.60640137 61.36557373 -22.40030273 61.35614746 -23.21826172 61.34643555 C-32.89499465 61.09803506 -40.09652497 58.58541671 -48 53 C-47.42365861 48.24518354 -45.44931479 45.02951788 -43 41 C-40.29319668 42.03495421 -37.74771688 43.134551 -35.1875 44.5 C-27.4135557 48.15832673 -21.3763353 48.13942796 -13 47 C-13 44.69 -13 42.38 -13 40 C-17.04582744 37.85273926 -20.90231662 36.34197368 -25.3125 35.125 C-39.71864033 30.7669781 -39.71864033 30.7669781 -43.5 24.375 C-46.04725718 18.64367135 -47.03556967 14.10670902 -45 8 C-35.18801008 -6.71798489 -14.93674724 -7.70621991 0 0 Z " fill="#16233C" transform="translate(573,464)"/>
<path d="M0 0 C5.61 0 11.22 0 17 0 C17.0680254 8.82376658 17.1229592 17.64735638 17.15543652 26.47132683 C17.17103121 30.56952606 17.19215479 34.66753516 17.22631836 38.765625 C17.25913478 42.72732513 17.2768995 46.68884343 17.28463173 50.6506691 C17.29013556 52.15520206 17.30088221 53.65972611 17.31719017 55.16418076 C17.41639314 64.70328698 17.16972827 73.39201922 12.375 81.875 C5.93635406 87.63589374 -0.53799559 88.43794691 -8.984375 88.3359375 C-11.99542206 88.00050998 -14.26286755 87.26719095 -17 86 C-16.28547412 81.23649415 -15.20465156 76.65798604 -14 72 C-13.34 72 -12.68 72 -12 72 C-12 72.66 -12 73.32 -12 74 C-10.1128125 73.7834375 -10.1128125 73.7834375 -8.1875 73.5625 C-7.47980469 73.48128906 -6.77210938 73.40007812 -6.04296875 73.31640625 C-3.80603607 73.02829265 -3.80603607 73.02829265 -1 72 C-0.67 48.24 -0.34 24.48 0 0 Z " fill="#17233D" transform="translate(496,461)"/>
<path d="M0 0 C0.86500122 -0.00990463 1.73000244 -0.01980927 2.62121582 -0.03001404 C4.04029991 -0.02326157 4.04029991 -0.02326157 5.48805237 -0.01637268 C6.98599838 -0.02666756 6.98599838 -0.02666756 8.51420593 -0.03717041 C11.82277046 -0.05550577 15.13086384 -0.05159119 18.43946838 -0.0459137 C20.73488521 -0.05047232 23.03030066 -0.05577693 25.32571411 -0.0617981 C30.14013712 -0.07074251 34.95439436 -0.06829096 39.76881409 -0.05836487 C45.94415453 -0.04687482 52.1189232 -0.06708098 58.2941885 -0.09628201 C63.03564093 -0.11461209 67.77695556 -0.11435787 72.51843452 -0.10864449 C74.79545455 -0.10849087 77.07248369 -0.11456795 79.34947014 -0.12693596 C82.53144761 -0.14178316 85.71235869 -0.13121434 88.89430237 -0.11402893 C89.8383342 -0.1236969 90.78236603 -0.13336487 91.75500488 -0.14332581 C98.1147726 -0.071257 98.1147726 -0.071257 101.33706665 2.23544312 C103.31482746 5.23557415 103.40346071 6.86193364 102.75587463 10.38768005 C100.74472085 13.15951353 99.13693217 15.07901659 95.6947155 15.8483448 C93.11109781 16.03271544 90.57032689 16.05169489 87.98023987 16.01878357 C87.00082428 16.02593887 86.02140869 16.03309418 85.01231384 16.04046631 C81.77922234 16.05735681 78.54751658 16.03794925 75.31446838 16.0165863 C73.06675095 16.0174149 70.81903357 16.01987392 68.57131958 16.02389526 C63.8628768 16.02675343 59.15490966 16.01204837 54.44654846 15.98460388 C48.40797393 15.95050202 42.37024891 15.95654595 36.33163357 15.97526646 C31.69137476 15.98582836 27.05131406 15.97690621 22.41107368 15.96188164 C20.18430736 15.95669477 17.95752039 15.95718772 15.73075676 15.96342659 C12.6207558 15.96886962 9.51197666 15.9485327 6.40211487 15.92112732 C5.47992661 15.9276532 4.55773834 15.93417908 3.60760498 15.94090271 C-2.62383017 15.84740972 -2.62383017 15.84740972 -5.81600952 13.48153687 C-8.24136675 9.9255573 -7.71455087 7.62150961 -7.24412537 3.38768005 C-5.1103333 0.47654765 -3.53739304 0.01143631 0 0 Z " fill="#FAA018" transform="translate(342.24412536621094,463.61231994628906)"/>
<path d="M0 0 C0.88038437 -0.00990463 1.76076874 -0.01980927 2.66783142 -0.03001404 C3.63101791 -0.02551239 4.59420441 -0.02101074 5.58657837 -0.01637268 C7.11137566 -0.02666756 7.11137566 -0.02666756 8.66697693 -0.03717041 C12.03566357 -0.05550875 15.40388755 -0.05159039 18.77261353 -0.0459137 C21.11047518 -0.05047253 23.4483355 -0.0557772 25.78619385 -0.0617981 C30.69057655 -0.07074335 35.59479654 -0.0682904 40.49917603 -0.05836487 C46.78651456 -0.04688105 53.07329099 -0.06707104 59.36055565 -0.09628201 C64.19040501 -0.11462354 69.02011922 -0.11435546 73.84999466 -0.10864449 C76.16805433 -0.10849098 78.48612299 -0.11455929 80.80414963 -0.12693596 C84.04578689 -0.14180277 87.28638016 -0.13119924 90.52798462 -0.11402893 C91.96669167 -0.12853088 91.96669167 -0.12853088 93.4344635 -0.14332581 C97.68053205 -0.09619794 100.07344068 0.02290425 103.78643799 2.23153687 C105.68667603 4.38768005 105.68667603 4.38768005 106.24917603 7.38768005 C105.5320966 11.21210367 104.86504044 12.13227673 101.68667603 14.38768005 C98.31201157 14.98938698 94.9697223 14.92340312 91.54971313 14.88938904 C90.52006943 14.89479202 89.49042572 14.90019501 88.42958069 14.90576172 C85.02410189 14.91827534 81.61946406 14.90174093 78.21401978 14.8837738 C75.85037695 14.88392872 73.48673386 14.88541643 71.12309265 14.88818359 C66.16915663 14.88956873 61.21550973 14.87698894 56.2616272 14.85423279 C49.90356097 14.82583266 43.54597472 14.82858832 37.18787289 14.8413229 C32.30748882 14.84826872 27.42721623 14.84050356 22.54684639 14.82806587 C20.20202626 14.82354181 17.85719421 14.82322286 15.51237297 14.82713127 C12.23941268 14.83003308 8.96712039 14.81358584 5.69424438 14.79173279 C4.23308197 14.79848526 4.23308197 14.79848526 2.74240112 14.80537415 C1.85215744 14.79546951 0.96191376 14.78556488 0.04469299 14.77536011 C-0.7290268 14.77293021 -1.5027466 14.77050032 -2.29991245 14.76799679 C-4.84347877 14.28753821 -5.73453253 13.40050394 -7.31332397 11.38768005 C-7.71176147 9.45018005 -7.71176147 9.45018005 -7.68832397 7.38768005 C-7.69605835 6.70705505 -7.70379272 6.02643005 -7.71176147 5.32518005 C-6.82878527 1.03149186 -4.058146 0.01288924 0 0 Z " fill="#22AFDA" transform="translate(342.3133239746094,508.61231994628906)"/>
<path d="M0 0 C0 4.95 0 9.9 0 15 C-2.8153125 15.37125 -2.8153125 15.37125 -5.6875 15.75 C-10.49023524 16.56929013 -13.75737662 17.1297721 -17 21 C-19.73173326 26.34553488 -20.46105764 30.60186069 -20.51171875 36.55859375 C-20.52966995 37.34774673 -20.54762115 38.13689972 -20.56611633 38.94996643 C-20.61986528 41.4457582 -20.65399965 43.94136272 -20.6875 46.4375 C-20.7207045 48.13999982 -20.75519702 49.84247504 -20.79101562 51.54492188 C-20.87797311 55.69663621 -20.93834013 59.84752637 -21 64 C-26.28 64 -31.56 64 -37 64 C-37 43.21 -37 22.42 -37 1 C-31.72 1 -26.44 1 -21 1 C-20.67 3.64 -20.34 6.28 -20 9 C-19.29875 8.071875 -18.5975 7.14375 -17.875 6.1875 C-12.69709841 0.06947661 -7.62129884 -0.34642267 0 0 Z " fill="#131F39" transform="translate(1183,460)"/>
<path d="M0 0 C4.21476504 2.97055396 7.21231243 5.82308569 8.6796875 10.8671875 C9.5145702 18.12497463 9.63118348 24.29667613 5.0859375 30.28125 C1.58190467 34.23302036 -0.88116228 36.04009274 -6.1328125 36.8671875 C-11.40222037 37.18084273 -15.14945319 36.12045776 -19.3203125 32.8671875 C-22.67703715 29.33511156 -24.94956035 25.81054947 -25.3203125 20.8671875 C-25.4028125 19.7740625 -25.4853125 18.6809375 -25.5703125 17.5546875 C-25.17417452 11.71165226 -23.6852431 7.51947191 -19.9453125 2.9921875 C-14.29337743 -1.58318851 -6.79767154 -3.31872853 0 0 Z " fill="#F2F3F6" transform="translate(1109.3203125,475.1328125)"/>
<path d="M0 0 C5.08654739 4.57789265 6.24011076 8.8714399 6.75 15.5 C6.404472 20.68291995 5.57972417 25.7818216 2.140625 29.86328125 C-2.48350835 33.903439 -6.31448153 35.48802641 -12.375 35.25 C-17.84383369 34.54907646 -21.03492039 32.4850973 -24.5 28.25 C-28.16485841 22.33893804 -28.47918352 16.08615161 -27.5 9.25 C-25.66008589 4.6794197 -22.89171032 0.65835727 -18.5 -1.75 C-12.3883372 -3.72926935 -5.65277674 -2.82638837 0 0 Z " fill="#F2F4F6" transform="translate(629.5,476.75)"/>
<path d="M0 0 C1.77247856 -0.0238678 1.77247856 -0.0238678 3.58076477 -0.04821777 C5.49794563 -0.0485199 5.49794563 -0.0485199 7.45385742 -0.04882812 C8.76714523 -0.05644165 10.08043304 -0.06405518 11.43351746 -0.07189941 C14.21520519 -0.08534911 16.99660916 -0.08691196 19.77832031 -0.08105469 C23.33288861 -0.07517048 26.88608535 -0.10569128 30.44038868 -0.14617157 C33.84075402 -0.17834251 37.24084048 -0.1739322 40.64135742 -0.17382812 C42.54942924 -0.19842102 42.54942924 -0.19842102 44.49604797 -0.22351074 C54.34506674 -0.14656626 54.34506674 -0.14656626 58.09326172 2.73046875 C60.24682617 5.41992188 60.24682617 5.41992188 60.30932617 9.04492188 C58.91553557 13.47225672 58.91553557 13.47225672 56.24682617 15.41992188 C53.59718323 15.80760193 53.59718323 15.80760193 50.37011719 15.82397461 C49.16198868 15.83665878 47.95386017 15.84934296 46.7091217 15.8624115 C45.40285324 15.85947586 44.09658478 15.85654022 42.75073242 15.85351562 C41.3969649 15.85807684 40.0431997 15.86338223 38.68943787 15.86940002 C35.85227044 15.87833497 33.01538443 15.87590425 30.17822266 15.8659668 C26.54516579 15.85448072 22.91308141 15.87467936 19.28015232 15.90388393 C16.48424627 15.92224579 13.68857322 15.92195357 10.89262199 15.91624641 C8.90287515 15.91601873 6.91315023 15.93292013 4.92347717 15.95005798 C3.7121965 15.94067703 2.50091583 15.93129608 1.25292969 15.92163086 C0.1872023 15.92146469 -0.87852509 15.92129852 -1.97654724 15.92112732 C-5.42805887 15.29809921 -6.60684735 14.13693781 -8.75317383 11.41992188 C-9.46199686 8.51207306 -9.09289172 6.47738287 -8.75317383 3.41992188 C-6.39237337 -0.05697692 -4.02049985 0.03251199 0 0 Z " fill="#FBA31B" transform="translate(343.753173828125,485.580078125)"/>
<path d="M0 0 C3.48829092 2.50522712 6.19341339 4.6609828 7.6484375 8.79296875 C8.99366795 23.38715493 8.99366795 23.38715493 6.0234375 29.04296875 C2.80341167 32.77141971 0.30194115 35.41266204 -4.75 36.13671875 C-9.93891347 36.32370662 -14.12194056 36.03895768 -18.3515625 32.79296875 C-23.4331004 26.88921915 -24.13163321 20.71923193 -23.8359375 13.11328125 C-23.14620466 8.3852739 -21.71110826 5.18815955 -18.3515625 1.79296875 C-13.08621716 -2.12542778 -5.92355172 -3.04049416 0 0 Z " fill="#F3F6F7" transform="translate(918.3515625,475.20703125)"/>
<path d="M0 0 C1.14476303 -0.01268417 2.28952606 -0.02536835 3.46897888 -0.03843689 C5.31750206 -0.03403343 5.31750206 -0.03403343 7.20336914 -0.02954102 C8.47322159 -0.03478287 9.74307404 -0.04002472 11.05140686 -0.04542542 C13.7373858 -0.05185019 16.4225156 -0.05194142 19.10839844 -0.04199219 C22.54293172 -0.03050681 25.97643617 -0.05070835 29.41083431 -0.07990932 C32.69585092 -0.10271464 35.98079193 -0.09580283 39.26586914 -0.09204102 C41.11135597 -0.10889198 41.11135597 -0.10889198 42.99412537 -0.12608337 C44.14204056 -0.11670242 45.28995575 -0.10732147 46.47265625 -0.09765625 C47.47985214 -0.09749008 48.48704803 -0.09732391 49.52476501 -0.09715271 C53.07306384 0.54343083 54.76382233 1.88407692 57.30102539 4.40405273 C57.86352539 7.40405273 57.86352539 7.40405273 57.30102539 10.40405273 C55.18455707 13.14399608 54.00564157 14.27510021 50.56236267 14.90525818 C48.99041893 14.90550743 48.99041893 14.90550743 47.38671875 14.90576172 C46.19545883 14.91514267 45.00419891 14.92452362 43.77684021 14.93418884 C42.49446976 14.92295486 41.2120993 14.91172089 39.89086914 14.90014648 C37.91238731 14.90232933 37.91238731 14.90232933 35.89393616 14.90455627 C33.10551958 14.90593916 30.31761808 14.89340029 27.52929688 14.87060547 C23.95568667 14.84219256 20.38293023 14.84496661 16.80925655 14.85769558 C13.39887113 14.86632193 9.98874013 14.85120964 6.57836914 14.83764648 C5.29397446 14.84058212 4.00957977 14.84351776 2.68626404 14.84654236 C1.49815628 14.83385818 0.31004852 14.82117401 -0.9140625 14.80810547 C-1.9612294 14.80270248 -3.0083963 14.7972995 -4.08729553 14.79173279 C-6.69897461 14.40405273 -6.69897461 14.40405273 -8.53343201 12.99989319 C-9.98020907 11.01899145 -10.1318565 9.84241324 -10.13647461 7.40405273 C-10.15581055 6.72342773 -10.17514648 6.04280273 -10.19506836 5.34155273 C-8.93063926 0.40330997 -4.42262589 0.02374341 0 0 Z " fill="#27ADD9" transform="translate(344.698974609375,530.595947265625)"/>
<path d="M0 0 C5.36818437 0.64018829 9.1796369 3.38887023 13.6953125 6.23828125 C14.58863281 6.78548828 15.48195313 7.33269531 16.40234375 7.89648438 C27.38442928 14.66794967 27.38442928 14.66794967 28.3828125 18.73828125 C27.48586003 22.80906555 27.25432515 23.10172834 24.0078125 25.30078125 C22.20342945 26.35644574 20.38947611 27.39579608 18.5703125 28.42578125 C17.31297957 29.21199426 16.05929107 30.0040547 14.80859375 30.80078125 C13.47972705 31.6350079 12.1502986 32.46834039 10.8203125 33.30078125 C10.18279053 33.7066748 9.54526855 34.11256836 8.88842773 34.53076172 C5.35757286 36.68375583 2.74340864 38.16132697 -1.4296875 37.42578125 C-3.4296875 35.42578125 -3.4296875 35.42578125 -4.0546875 32.63671875 C-3.33347198 28.93147402 -2.914729 28.67309978 0.0703125 26.65234375 C1.55720242 25.76286496 3.05801457 24.89633972 4.5703125 24.05078125 C5.3334375 23.60089844 6.0965625 23.15101563 6.8828125 22.6875 C8.76802936 21.5799351 10.66279213 20.49432241 12.5703125 19.42578125 C9.43859306 16.86497703 6.27627971 14.50163774 2.8828125 12.30078125 C0.51821487 10.76677338 -1.43238642 9.42308233 -3.4296875 7.42578125 C-3.6171875 4.36328125 -3.6171875 4.36328125 -3.4296875 1.42578125 C-2.4296875 0.42578125 -2.4296875 0.42578125 0 0 Z " fill="#5DCB88" transform="translate(388.4296875,413.57421875)"/>
<path d="M0 0 C1 1 1 1 1.5625 4.22265625 C1 8 1 8 -0.50390625 9.51123047 C-2.61484681 10.94933455 -4.76025439 12.2098016 -7 13.4375 C-7.763125 13.88287109 -8.52625 14.32824219 -9.3125 14.78710938 C-11.19622943 15.88202711 -13.09046015 16.95095924 -15 18 C-11.56441599 20.8828758 -8.09262479 23.12207525 -4.1875 25.3125 C-1.27734375 27.12109375 -1.27734375 27.12109375 1 29 C1.75 32.875 1.75 32.875 1 36 C0 37 0 37 -2.91796875 37.4609375 C-8.57288489 37.37716096 -12.82412746 33.71952885 -17.3125 30.625 C-18.21806641 30.02171875 -19.12363281 29.4184375 -20.05664062 28.796875 C-28.80409404 22.9261009 -28.80409404 22.9261009 -29.6875 18.75 C-29 15 -29 15 -27.48046875 13.5234375 C-25.04449953 11.90548392 -22.52992635 10.4670177 -20 9 C-18.82629764 8.21685896 -17.65863218 7.4246196 -16.49609375 6.625 C-15.88781738 6.21233887 -15.27954102 5.79967773 -14.65283203 5.37451172 C-13.44677005 4.55564395 -12.2456898 3.72937936 -11.05029297 2.89501953 C-7.22434631 0.36287126 -4.57811792 -0.55615655 0 0 Z " fill="#5CCB89" transform="translate(364,414)"/>
<path d="M0 0 C0.89267578 0.00322266 1.78535156 0.00644531 2.70507812 0.00976562 C4.09823242 0.02233398 4.09823242 0.02233398 5.51953125 0.03515625 C6.45990234 0.03966797 7.40027344 0.04417969 8.36914062 0.04882812 C10.69016837 0.06060999 13.01106769 0.07706067 15.33203125 0.09765625 C15.59765625 7.68359375 15.59765625 7.68359375 13.20703125 11.41015625 C9.22711556 15.13051222 6.28090905 16.88884791 0.83203125 17.47265625 C-3.01958566 17.05998301 -5.39852852 16.15056058 -8.66796875 14.09765625 C-10.99375976 10.60896974 -11.08662332 9.20047106 -10.66796875 5.09765625 C-8.0254348 0.44176311 -5.09428423 -0.03244767 0 0 Z " fill="#F0F6F5" transform="translate(762.66796875,496.90234375)"/>
<path d="M0 0 C3.71701763 2.42744008 5.21733839 4.67721442 6.125 8.9375 C6.36890311 12.23957287 5.76489796 13.87311558 3.6875 16.4375 C-0.17412949 20.11951882 -2.54732437 20.42851953 -7.734375 20.328125 C-10 20 -10 20 -13.0625 18.125 C-15.79643714 13.71542397 -15.99442918 10.05501501 -15 5 C-11.45728952 -0.90451747 -6.336616 -1.26940419 0 0 Z " fill="#16223D" transform="translate(509,430)"/>
<path d="M0 0 C3.38567875 1.80604636 5.91597094 3.76261787 8 7 C8.33 9.31 8.66 11.62 9 14 C-1.23 14 -11.46 14 -22 14 C-20.08553809 7.29938332 -19.50530496 5.37198089 -14.4765625 1.33984375 C-9.7319974 -1.22701087 -5.17868405 -1.21321246 0 0 Z " fill="#F2F3F6" transform="translate(1224,473)"/>
<path d="M0 0 C0.66 0.99 1.32 1.98 2 3 C2.66 2.01 3.32 1.02 4 0 C4 1.32 4 2.64 4 4 C5.65 3.67 7.3 3.34 9 3 C9 4.65 9 6.3 9 8 C2.9453125 8.1953125 2.9453125 8.1953125 1 8 C0.34 7.34 -0.32 6.68 -1 6 C-0.625 2.875 -0.625 2.875 0 0 Z " fill="#D2F1E3" transform="translate(365,444)"/>
<path d="M0 0 C0.33 0 0.66 0 1 0 C1.33 2.64 1.66 5.28 2 8 C3.65 6.02 5.3 4.04 7 2 C7.66 2.33 8.32 2.66 9 3 C8.07347299 4.17539996 7.13336613 5.34010577 6.1875 6.5 C5.66542969 7.1496875 5.14335938 7.799375 4.60546875 8.46875 C3 10 3 10 0 10 C0 6.7 0 3.4 0 0 Z " fill="#303B51" transform="translate(1161,461)"/>
<path d="M0 0 C0.90105469 0.02707031 1.80210937 0.05414063 2.73046875 0.08203125 C3.76107422 0.13423828 3.76107422 0.13423828 4.8125 0.1875 C4.8125 0.5175 4.8125 0.8475 4.8125 1.1875 C1.8425 1.1875 -1.1275 1.1875 -4.1875 1.1875 C-4.8475 2.5075 -5.5075 3.8275 -6.1875 5.1875 C-7.1775 5.8475 -8.1675 6.5075 -9.1875 7.1875 C-8.19516986 1.43198517 -5.73684613 -0.22351349 0 0 Z " fill="#303A51" transform="translate(504.1875,429.8125)"/>
<path d="M0 0 C0.33 1.32 0.66 2.64 1 4 C-1.31 4 -3.62 4 -6 4 C-5.67 3.01 -5.34 2.02 -5 1 C-3.35 0.67 -1.7 0.34 0 0 Z " fill="#A2E3C1" transform="translate(373,447)"/>
<path d="M0 0 C0.99 0.33 1.98 0.66 3 1 C2.0479279 2.00596297 1.08812654 3.00461563 0.125 4 C-0.40867187 4.556875 -0.94234375 5.11375 -1.4921875 5.6875 C-3 7 -3 7 -5 7 C-3.70700306 4.11562221 -2.34058637 2.12780579 0 0 Z " fill="#29364C" transform="translate(1079,467)"/>
</svg>
